<svg xmlns="http://www.w3.org/2000/svg" viewBox="0 0 500 300" width="500" height="300">
  <!-- Background -->
  <defs>
    <linearGradient id="bg-gradient" x1="0%" y1="0%" x2="100%" y2="100%">
      <stop offset="0%" stop-color="#F4F4F8" />
      <stop offset="100%" stop-color="#E0E0E8" />
    </linearGradient>
  </defs>

  <!-- Main bridge structure -->
  <g>
    <!-- Bridge arches -->
    <path d="M80,180 Q150,120 250,120 Q350,120 420,180" stroke="#4A6FA5" stroke-width="12" fill="none" />
    <path d="M100,200 Q170,150 250,150 Q330,150 400,200" stroke="#3B5F88" stroke-width="8" fill="none" />

    <!-- Bridge pillars -->
    <rect x="75" y="180" width="10" height="60" fill="#3B5F88" />
    <rect x="415" y="180" width="10" height="60" fill="#3B5F88" />
    
    <!-- Water/foundation -->
    <path d="M60,240 C100,230 150,245 200,235 C250,225 300,240 350,230 C400,220 450,235 500,225 L500,300 L0,300 L0,230 C20,235 40,230 60,240 Z" fill="#7A9CC9" opacity="0.6" />
  </g>

  <!-- Neural network nodes -->
  <g>
    <!-- Input layer -->
    <circle cx="120" cy="100" r="8" fill="#4A6FA5" />
    <circle cx="120" cy="140" r="8" fill="#4A6FA5" />
    <circle cx="120" cy="180" r="8" fill="#4A6FA5" />
    
    <!-- Hidden layer 1 -->
    <circle cx="200" cy="80" r="8" fill="#4A6FA5" />
    <circle cx="200" cy="120" r="8" fill="#4A6FA5" />
    <circle cx="200" cy="160" r="8" fill="#4A6FA5" />
    <circle cx="200" cy="200" r="8" fill="#4A6FA5" />
    
    <!-- Hidden layer 2 -->
    <circle cx="300" cy="80" r="8" fill="#4A6FA5" />
    <circle cx="300" cy="120" r="8" fill="#4A6FA5" />
    <circle cx="300" cy="160" r="8" fill="#4A6FA5" />
    <circle cx="300" cy="200" r="8" fill="#4A6FA5" />
    
    <!-- Output layer -->
    <circle cx="380" cy="100" r="8" fill="#4A6FA5" />
    <circle cx="380" cy="140" r="8" fill="#4A6FA5" />
    <circle cx="380" cy="180" r="8" fill="#4A6FA5" />
    
    <!-- Neural connections (partial, for visual clarity) -->
    <g stroke="#7A9CC9" stroke-width="1.5" opacity="0.7">
      <!-- Layer 1 to 2 connections -->
      <line x1="120" y1="100" x2="200" y2="80" />
      <line x1="120" y1="100" x2="200" y2="120" />
      <line x1="120" y1="140" x2="200" y2="120" />
      <line x1="120" y1="140" x2="200" y2="160" />
      <line x1="120" y1="180" x2="200" y2="160" />
      <line x1="120" y1="180" x2="200" y2="200" />
      
      <!-- Layer 2 to 3 connections -->
      <line x1="200" y1="80" x2="300" y2="80" />
      <line x1="200" y1="80" x2="300" y2="120" />
      <line x1="200" y1="120" x2="300" y2="80" />
      <line x1="200" y1="120" x2="300" y2="120" />
      <line x1="200" y1="160" x2="300" y2="160" />
      <line x1="200" y1="160" x2="300" y2="200" />
      <line x1="200" y1="200" x2="300" y2="160" />
      <line x1="200" y1="200" x2="300" y2="200" />
      
      <!-- Layer 3 to 4 connections -->
      <line x1="300" y1="80" x2="380" y2="100" />
      <line x1="300" y1="120" x2="380" y2="100" />
      <line x1="300" y1="120" x2="380" y2="140" />
      <line x1="300" y1="160" x2="380" y2="140" />
      <line x1="300" y1="160" x2="380" y2="180" />
      <line x1="300" y1="200" x2="380" y2="180" />
    </g>
  </g>

  <!-- Text -->
  <g>
    <text x="250" y="270" font-family="Arial, sans-serif" font-size="38" font-weight="bold" text-anchor="middle" fill="#3B5F88">DeepBridge</text>
    <text x="250" y="295" font-family="Arial, sans-serif" font-size="14" text-anchor="middle" fill="#4A6FA5">Model Validation & Distillation</text>
  </g>

  <!-- Glowing effect for neural nodes -->
  <g>
    <filter id="glow" x="-50%" y="-50%" width="200%" height="200%">
      <feGaussianBlur stdDeviation="2" result="blur" />
      <feComposite in="SourceGraphic" in2="blur" operator="over" />
    </filter>
    
    <!-- Apply glow to selected nodes -->
    <circle cx="200" cy="120" r="6" fill="#7A9CC9" filter="url(#glow)" opacity="0.8" />
    <circle cx="300" cy="160" r="6" fill="#7A9CC9" filter="url(#glow)" opacity="0.8" />
    <circle cx="380" cy="140" r="6" fill="#7A9CC9" filter="url(#glow)" opacity="0.8" />
  </g>
</svg>